<svg width="756" height="228" viewBox="0 0 756 228" fill="none" xmlns="http://www.w3.org/2000/svg">
<path d="M62.1977 82.6937C62.1977 90.5113 59.9911 96.8789 55.5779 101.796C51.2908 106.714 45.2385 109.173 37.4208 109.173H20.0203V147H0.350098V21.9809C22.416 21.8548 33.575 21.7917 33.8272 21.7917C41.6449 21.7917 48.3277 24.5658 53.8757 30.1138C59.4237 35.6618 62.1977 42.3446 62.1977 50.1622V82.6937ZM43.284 77.587V54.5123C43.284 48.3339 42.5275 44.2359 41.0144 42.2185C38.997 39.5706 34.836 38.3097 28.5314 38.4358H19.8311L20.0203 93.2853C27.5857 93.4114 31.4945 93.4744 31.7467 93.4744C36.4121 93.4744 39.6274 91.8983 41.3927 88.746C42.6536 86.3503 43.284 82.6306 43.284 77.587Z" fill="#F87C0C"/>
<path d="M134.056 94.7984L133.867 120.521C133.741 128.339 130.904 135.021 125.356 140.569C119.934 146.117 113.314 148.891 105.497 148.891H100.579C92.7614 148.891 86.0786 146.117 80.5306 140.569C74.9826 135.021 72.2086 128.339 72.2086 120.521V50.1622C72.2086 42.3446 74.9826 35.6618 80.5306 30.1138C86.0786 24.5658 92.7614 21.7917 100.579 21.7917H105.497C113.314 21.7917 119.997 24.5658 125.545 30.1138C131.093 35.6618 133.867 42.3446 133.867 50.1622V69.6432H114.953C114.953 68.5084 115.016 66.6171 115.143 63.9692C115.143 61.5734 115.143 59.6821 115.143 58.2951C115.143 45.1816 110.982 38.6249 102.66 38.6249C94.968 38.6249 91.1222 43.9207 91.1222 54.5123V115.414C91.1222 126.006 95.2202 131.302 103.416 131.302C108.208 131.302 111.486 129.599 113.251 126.195C114.386 123.799 114.953 119.89 114.953 114.469V112.766H101.903V94.9875L134.056 94.7984Z" fill="#F87C0C"/>
<path d="M204.428 94.7984L204.239 120.521C204.113 128.339 201.276 135.021 195.728 140.569C190.306 146.117 183.686 148.891 175.869 148.891H170.951C163.133 148.891 156.451 146.117 150.903 140.569C145.355 135.021 142.581 128.339 142.581 120.521V50.1622C142.581 42.3446 145.355 35.6618 150.903 30.1138C156.451 24.5658 163.133 21.7917 170.951 21.7917H175.869C183.686 21.7917 190.369 24.5658 195.917 30.1138C201.465 35.6618 204.239 42.3446 204.239 50.1622V69.6432H185.325C185.325 68.5084 185.388 66.6171 185.515 63.9692C185.515 61.5734 185.515 59.6821 185.515 58.2951C185.515 45.1816 181.354 38.6249 173.032 38.6249C165.34 38.6249 161.494 43.9207 161.494 54.5123V115.414C161.494 126.006 165.592 131.302 173.788 131.302C178.58 131.302 181.858 129.599 183.623 126.195C184.758 123.799 185.325 119.89 185.325 114.469V112.766H172.275V94.9875L204.428 94.7984Z" fill="#F87C0C"/>
<path d="M261.876 39.968H242.584L242.773 147.208H223.103L222.914 39.968H204.189L204 24.2696H261.687L261.876 39.968Z" fill="#33466B"/>
<path d="M317.402 147.208H297.732L293.193 119.216H278.818L274.09 147.208H254.42L276.17 24.2696L296.408 24.4588L317.402 147.208ZM290.166 99.5459L286.195 69.6624L282.223 99.5459H290.166Z" fill="#33466B"/>
<path d="M390.013 147.208H370.91C371.036 127.286 371.099 117.262 371.099 117.136C371.099 110.453 368.955 105.914 364.668 103.518C361.768 101.879 356.725 101.122 349.537 101.248H346.322L346.511 147.208H326.841V24.0805C349.159 23.9544 360.318 23.8914 360.318 23.8914C368.136 23.8914 374.819 26.6654 380.367 32.2134C385.915 37.7614 388.689 44.4442 388.689 52.2618V73.4451C388.689 77.3539 387.554 81.3258 385.284 85.3607C383.015 89.7739 380.178 92.674 376.773 94.061C380.304 95.7001 383.393 98.348 386.041 102.005C388.689 105.535 390.013 109.129 390.013 112.785V147.208ZM369.775 68.3384V56.612C369.775 50.4335 368.955 46.3356 367.316 44.3181C365.425 41.6702 361.264 40.4093 354.833 40.5354H346.322V84.0367C353.888 84.1628 357.859 84.2259 358.238 84.2259C362.903 84.2259 366.055 82.6497 367.695 79.4975C369.082 77.1017 369.775 73.382 369.775 68.3384Z" fill="#33466B"/>
<path d="M422.658 147.208H402.988L402.799 24.2696L422.469 24.4588L422.658 147.208Z" fill="#33466B"/>
<path d="M496.564 147.208H476.894L472.355 119.216H457.981L453.252 147.208H433.582L455.333 24.2696L475.57 24.4588L496.564 147.208ZM469.329 99.5459L465.357 69.6624L461.385 99.5459H469.329Z" fill="#33466B"/>
<path d="M565.581 147.208H545.533L525.484 80.254L525.674 147.208H507.517L506.949 24.4588H526.619L547.424 93.6827L547.613 24.4588H565.392L565.581 147.208Z" fill="#33466B"/>
<path d="M639.147 58.5033H620.233C620.233 52.5771 619.666 48.1639 618.531 45.2638C616.639 40.9767 613.109 38.8331 607.939 38.8331C603.274 38.8331 600.058 40.4723 598.293 43.7507C597.032 46.1464 596.402 49.9291 596.402 55.0989C596.402 62.0339 596.906 67.0775 597.915 70.2298C599.68 75.7778 603.274 78.5518 608.696 78.5518C616.513 78.5518 623.511 81.3258 629.69 86.8738C635.868 92.2957 638.957 98.9155 638.957 106.733V122.242C638.957 130.06 636.183 136.743 630.635 142.291C625.087 147.839 618.405 150.613 610.587 150.613H605.669C597.852 150.613 591.169 147.839 585.621 142.291C580.073 136.743 577.299 130.06 577.299 122.242V114.109H596.213C596.086 127.223 600.184 133.78 608.506 133.78C613.298 133.78 616.576 132.014 618.342 128.484C619.476 126.214 620.044 122.305 620.044 116.757C620.044 102.887 616.009 95.9523 607.939 95.9523C599.995 95.9523 592.934 93.2414 586.756 87.8195C580.577 82.2715 577.488 75.5886 577.488 67.771V50.3705C577.488 42.5528 580.262 35.87 585.81 30.322C591.358 24.774 598.041 22 605.859 22H610.776C618.594 22 625.277 24.774 630.825 30.322C636.373 35.87 639.147 42.5528 639.147 50.3705V58.5033Z" fill="#33466B"/>
<path d="M0 170.759H639V227.812H0V170.759Z" fill="#33466B"/>
<path d="M50.6981 217.762C47.2368 220.105 43.4827 221.277 39.4357 221.277C34.9627 221.277 31.5547 220.371 29.2117 218.561C26.9219 216.75 25.7504 214.115 25.6972 210.653C25.5907 203.678 30.0104 200.19 38.9564 200.19L49.2603 200.27C49.2603 196.702 48.5947 194.066 47.2634 192.362C45.9322 190.605 43.9087 189.726 41.1929 189.726C39.9149 189.726 38.6636 189.806 37.4388 189.966C36.2141 190.125 35.0692 190.365 34.0042 190.684L33.2054 195.078L28.0934 194.119L29.3714 186.851C31.3949 186.105 33.3652 185.546 35.2822 185.173C37.2524 184.8 39.1428 184.614 40.9533 184.614C45.7458 184.614 49.3668 185.919 51.8163 188.528C54.2658 191.084 55.4906 194.891 55.4906 199.95V213.848L63.0787 216.324L61.4812 221.436L50.6981 217.762ZM39.1961 205.222C36.9063 205.222 35.1491 205.674 33.9243 206.58C32.6996 207.485 32.0872 208.816 32.0872 210.573C32.0872 214.301 34.6432 216.165 39.7552 216.165C43.4294 216.165 46.5978 215.153 49.2603 213.129V205.302L39.1961 205.222Z" fill="white"/>
<path d="M113.349 190.605C112.125 190.179 110.953 189.886 109.835 189.726C108.77 189.566 107.545 189.486 106.161 189.486C102.593 189.486 99.744 190.605 97.614 192.841C95.484 195.078 94.419 198.432 94.419 202.905C94.419 207.272 95.5639 210.547 97.8537 212.73C100.197 214.913 102.992 216.005 106.241 216.005C107.891 216.005 109.569 215.739 111.273 215.206C112.977 214.674 114.654 213.848 116.305 212.73L118.941 216.644C117.609 217.602 116.331 218.428 115.107 219.12C113.882 219.812 112.524 220.345 111.033 220.718C109.542 221.09 107.678 221.277 105.442 221.277C102.034 221.277 98.9985 220.558 96.336 219.12C93.7268 217.629 91.6767 215.499 90.1857 212.73C88.7479 209.961 88.029 206.686 88.029 202.905C88.029 198.912 88.8278 195.557 90.4253 192.841C92.076 190.072 94.2859 187.995 97.0549 186.611C99.8239 185.173 102.886 184.454 106.241 184.454C108.371 184.454 110.341 184.694 112.151 185.173C113.962 185.599 116.039 186.158 118.382 186.851L119.5 195.477L114.388 196.595L113.349 190.605Z" fill="white"/>
<path d="M124.113 220.079V215.126H130.822V174.869L122.835 173.112L124.192 168L137.052 170.955V215.126H143.762V220.079H124.113Z" fill="white"/>
<path d="M173.475 217.762C170.013 220.105 166.259 221.277 162.212 221.277C157.739 221.277 154.331 220.371 151.988 218.561C149.699 216.75 148.527 214.115 148.474 210.653C148.367 203.678 152.787 200.19 161.733 200.19L172.037 200.27C172.037 196.702 171.371 194.066 170.04 192.362C168.709 190.605 166.685 189.726 163.97 189.726C162.692 189.726 161.44 189.806 160.215 189.966C158.991 190.125 157.846 190.365 156.781 190.684L155.982 195.078L150.87 194.119L152.148 186.851C154.172 186.105 156.142 185.546 158.059 185.173C160.029 184.8 161.919 184.614 163.73 184.614C168.522 184.614 172.143 185.919 174.593 188.528C177.042 191.084 178.267 194.891 178.267 199.95V213.848L185.855 216.324L184.258 221.436L173.475 217.762ZM161.973 205.222C159.683 205.222 157.926 205.674 156.701 206.58C155.476 207.485 154.864 208.816 154.864 210.573C154.864 214.301 157.42 216.165 162.532 216.165C166.206 216.165 169.374 215.153 172.037 213.129V205.302L161.973 205.222Z" fill="white"/>
<path d="M212.725 190.844C211.553 190.365 210.435 189.992 209.37 189.726C208.305 189.46 206.92 189.327 205.216 189.327C203.193 189.327 201.356 189.779 199.705 190.684C198.107 191.59 197.309 192.868 197.309 194.518C197.309 196.116 197.974 197.367 199.306 198.273C200.69 199.125 202.607 199.684 205.057 199.95L208.331 200.27C212.698 200.696 215.76 201.787 217.517 203.544C219.274 205.248 220.153 207.512 220.153 210.334C220.153 212.517 219.541 214.434 218.316 216.085C217.144 217.736 215.467 219.014 213.284 219.919C211.154 220.824 208.651 221.277 205.775 221.277C203.166 221.277 200.61 220.931 198.107 220.238C195.658 219.546 193.528 218.694 191.717 217.682L190.36 209.615L195.871 208.257L197.069 213.848C198.294 214.541 199.625 215.073 201.063 215.446C202.554 215.819 204.045 216.005 205.536 216.005C207.879 216.005 209.929 215.552 211.686 214.647C213.497 213.689 214.402 212.304 214.402 210.494C214.402 208.896 213.869 207.778 212.804 207.139C211.739 206.447 209.876 205.941 207.213 205.621L203.699 205.222C199.758 204.796 196.75 203.651 194.673 201.787C192.596 199.923 191.558 197.634 191.558 194.918C191.558 192.575 192.223 190.631 193.555 189.087C194.886 187.543 196.59 186.398 198.667 185.652C200.797 184.907 203.006 184.534 205.296 184.534C207.799 184.534 210.035 184.774 212.006 185.253C213.976 185.732 215.866 186.425 217.677 187.33L219.115 194.918L214.082 196.036L212.725 190.844Z" fill="white"/>
<path d="M248.684 190.844C247.512 190.365 246.394 189.992 245.329 189.726C244.264 189.46 242.88 189.327 241.176 189.327C239.152 189.327 237.315 189.779 235.664 190.684C234.067 191.59 233.268 192.868 233.268 194.518C233.268 196.116 233.934 197.367 235.265 198.273C236.649 199.125 238.566 199.684 241.016 199.95L244.291 200.27C248.657 200.696 251.719 201.787 253.476 203.544C255.234 205.248 256.112 207.512 256.112 210.334C256.112 212.517 255.5 214.434 254.275 216.085C253.104 217.736 251.426 219.014 249.243 219.919C247.113 220.824 244.61 221.277 241.735 221.277C239.126 221.277 236.57 220.931 234.067 220.238C231.617 219.546 229.487 218.694 227.677 217.682L226.319 209.615L231.83 208.257L233.028 213.848C234.253 214.541 235.584 215.073 237.022 215.446C238.513 215.819 240.004 216.005 241.495 216.005C243.838 216.005 245.888 215.552 247.646 214.647C249.456 213.689 250.361 212.304 250.361 210.494C250.361 208.896 249.829 207.778 248.764 207.139C247.699 206.447 245.835 205.941 243.173 205.621L239.658 205.222C235.718 204.796 232.709 203.651 230.632 201.787C228.555 199.923 227.517 197.634 227.517 194.918C227.517 192.575 228.183 190.631 229.514 189.087C230.845 187.543 232.549 186.398 234.626 185.652C236.756 184.907 238.966 184.534 241.256 184.534C243.758 184.534 245.995 184.774 247.965 185.253C249.935 185.732 251.826 186.425 253.636 187.33L255.074 194.918L250.042 196.036L248.684 190.844Z" fill="white"/>
<path d="M307.406 217.762C303.944 220.105 300.19 221.277 296.143 221.277C291.67 221.277 288.262 220.371 285.919 218.561C283.63 216.75 282.458 214.115 282.405 210.653C282.298 203.678 286.718 200.19 295.664 200.19L305.968 200.27C305.968 196.702 305.302 194.066 303.971 192.362C302.64 190.605 300.616 189.726 297.901 189.726C296.623 189.726 295.371 189.806 294.146 189.966C292.922 190.125 291.777 190.365 290.712 190.684L289.913 195.078L284.801 194.119L286.079 186.851C288.103 186.105 290.073 185.546 291.99 185.173C293.96 184.8 295.85 184.614 297.661 184.614C302.453 184.614 306.074 185.919 308.524 188.528C310.973 191.084 312.198 194.891 312.198 199.95V213.848L319.786 216.324L318.189 221.436L307.406 217.762ZM295.904 205.222C293.614 205.222 291.857 205.674 290.632 206.58C289.407 207.485 288.795 208.816 288.795 210.573C288.795 214.301 291.351 216.165 296.463 216.165C300.137 216.165 303.305 215.153 305.968 213.129V205.302L295.904 205.222Z" fill="white"/>
<path d="M322.432 220.079V215.126H329.141V192.202L321.473 189.566L323.15 184.614L333.774 188.288C335.638 187.063 337.608 186.158 339.685 185.573C341.815 184.933 343.891 184.614 345.915 184.614C348.471 184.614 350.814 185.12 352.944 186.132C355.127 187.09 356.858 188.581 358.136 190.605C359.467 192.575 360.133 195.078 360.133 198.113V215.126H366.842V220.079H350.308V215.126H353.902V199.391C353.902 195.983 353.024 193.533 351.266 192.042C349.562 190.498 347.432 189.726 344.876 189.726C343.385 189.726 341.815 189.966 340.164 190.445C338.566 190.871 336.969 191.536 335.371 192.442V215.126H338.966V220.079H322.432Z" fill="white"/>
<path d="M409.601 221.436L398.978 217.762C395.73 220.105 392.269 221.277 388.594 221.277C383.11 221.277 378.823 219.599 375.734 216.245C372.699 212.837 371.182 208.151 371.182 202.187C371.182 196.649 372.699 192.335 375.734 189.247C378.823 186.158 383.11 184.614 388.594 184.614C390.032 184.614 391.523 184.774 393.067 185.093C394.665 185.359 396.129 185.759 397.46 186.291V175.828L389.872 173.192L391.55 168.24L403.691 172.393V213.768L411.199 216.324L409.601 221.436ZM388.674 216.165C390.005 216.165 391.47 215.898 393.067 215.366C394.665 214.78 396.129 214.061 397.46 213.209V191.723C396.289 191.137 394.878 190.658 393.227 190.285C391.63 189.912 390.112 189.726 388.674 189.726C385.373 189.726 382.684 190.871 380.607 193.161C378.583 195.397 377.572 198.379 377.572 202.107C377.572 206.313 378.583 209.721 380.607 212.331C382.684 214.887 385.373 216.165 388.674 216.165Z" fill="white"/>
<path d="M436.316 220.079V215.126H443.025V192.202L435.357 189.566L437.035 184.614L447.578 188.288C449.069 187.17 450.773 186.291 452.69 185.652C454.661 184.96 456.551 184.614 458.361 184.614C461.024 184.614 463.314 184.96 465.231 185.652C467.201 186.345 468.745 187.383 469.863 188.768C471.195 187.543 472.925 186.558 475.055 185.812C477.185 185.013 479.235 184.614 481.206 184.614C486.051 184.614 489.539 185.679 491.669 187.809C493.853 189.939 494.944 193.374 494.944 198.113V215.126H501.654V220.079H485.12V215.126H488.714V199.391C488.714 195.876 488.102 193.4 486.877 191.963C485.705 190.472 483.682 189.726 480.806 189.726C479.102 189.726 477.425 189.992 475.774 190.525C474.177 191.004 472.952 191.643 472.1 192.442V215.126H475.694V220.079H462.275V215.126H465.87V199.391C465.87 195.876 465.257 193.4 464.033 191.963C462.861 190.472 460.838 189.726 457.962 189.726C456.258 189.726 454.581 189.992 452.93 190.525C451.332 191.004 450.108 191.643 449.256 192.442V215.126H452.85V220.079H436.316Z" fill="white"/>
<path d="M523.383 184.614C526.951 184.614 530.04 185.36 532.649 186.851C535.311 188.288 537.388 190.392 538.879 193.161C540.37 195.876 541.116 199.151 541.116 202.985C541.116 208.683 539.492 213.156 536.243 216.404C532.995 219.653 528.708 221.277 523.383 221.277C519.975 221.277 516.94 220.558 514.278 219.12C511.668 217.629 509.618 215.526 508.127 212.81C506.69 210.041 505.971 206.766 505.971 202.985C505.971 199.151 506.69 195.876 508.127 193.161C509.618 190.392 511.668 188.288 514.278 186.851C516.94 185.36 519.975 184.614 523.383 184.614ZM523.463 189.726C519.789 189.726 517.02 190.897 515.156 193.24C513.293 195.53 512.361 198.779 512.361 202.985C512.361 207.192 513.293 210.44 515.156 212.73C517.02 215.02 519.789 216.165 523.463 216.165C527.244 216.165 530.066 215.02 531.93 212.73C533.794 210.44 534.726 207.192 534.726 202.985C534.726 198.779 533.794 195.53 531.93 193.24C530.066 190.897 527.244 189.726 523.463 189.726Z" fill="white"/>
<path d="M557.566 188.368C559.377 187.143 561.427 186.212 563.717 185.573C566.006 184.933 568.296 184.614 570.586 184.614C572.503 184.614 573.515 184.667 573.621 184.774L574.979 193.161L569.787 194.279L568.988 189.806C567.338 189.806 565.634 190.046 563.876 190.525C562.172 191.004 560.601 191.67 559.164 192.522V215.126H566.991V220.079H546.224V215.126H552.933V192.282L545.265 189.646L546.943 184.694L557.566 188.368Z" fill="white"/>
<path d="M611.019 216.005C608.889 217.815 606.706 219.147 604.469 219.999C602.286 220.851 599.783 221.277 596.961 221.277C593.233 221.277 589.985 220.558 587.216 219.12C584.447 217.629 582.29 215.526 580.746 212.81C579.255 210.041 578.51 206.739 578.51 202.905C578.51 199.231 579.229 196.036 580.666 193.32C582.104 190.551 584.128 188.421 586.737 186.93C589.399 185.386 592.461 184.614 595.922 184.614C599.171 184.614 601.94 185.306 604.229 186.691C606.519 188.075 608.276 190.019 609.501 192.522C610.779 194.971 611.418 197.9 611.418 201.308C611.418 201.787 611.392 202.293 611.338 202.826C611.338 203.305 611.312 203.811 611.258 204.343L584.66 204.503C584.82 207.219 585.459 209.429 586.577 211.133C587.749 212.837 589.213 214.088 590.97 214.887C592.781 215.685 594.698 216.085 596.721 216.085C599.064 216.085 601.168 215.765 603.031 215.126C604.895 214.487 606.599 213.529 608.143 212.251L611.019 216.005ZM605.268 199.471C605.215 196.489 604.336 194.092 602.632 192.282C600.981 190.418 598.771 189.486 596.002 189.486C593.18 189.486 590.704 190.418 588.574 192.282C586.444 194.092 585.166 196.515 584.74 199.551L605.268 199.471Z" fill="white"/>
<path d="M653 111.93C653.478 132.733 662.189 140.413 684.092 151.106C669.086 122.848 670.749 105.693 692.487 72.7548C700.88 60.7829 704.947 54.2531 708.965 43.5285C716.013 24.9051 715.084 15.4234 705.856 0C697.921 25.0258 691.2 38.9911 675.075 63.7382C660.176 80.0028 655.642 90.6768 653 111.93Z" fill="#33466B"/>
<path d="M694.043 96.6956C712.278 71.6489 718.104 57.1942 721.715 30.781C739.615 52.6296 746.837 67.006 754.361 96.6956C755.697 104.588 755.926 109.012 754.361 116.905C750.21 129.809 745.506 136.072 731.353 144.888C713.223 153.624 704.77 154.048 694.043 143.333C681.95 126.203 682.476 115.945 694.043 96.6956Z" fill="#F87C0C"/>
</svg>
